<svg version="1.1" id="Layer_1" xmlns="http://www.w3.org/2000/svg" xmlns:xlink="http://www.w3.org/1999/xlink" x="0px" y="0px"
	 width="100%" viewBox="0 0 218 171" enable-background="new 0 0 218 171" xml:space="preserve">
<path fill="#000000" opacity="1.000000" stroke="none" 
	d="
M130.000000,172.000000 
	C87.860123,172.000000 46.220192,171.972046 4.580517,172.063507 
	C1.829906,172.069534 0.890975,171.800201 0.899219,168.584625 
	C1.039722,113.786903 1.030234,58.988667 0.915226,4.190832 
	C0.909154,1.297378 1.654126,0.928312 4.305250,0.931552 
	C74.759811,1.017651 145.214523,1.016323 215.669098,0.935458 
	C218.267181,0.932476 219.094345,1.216486 219.087921,4.165181 
	C218.968170,59.129559 218.976013,114.094307 219.073593,169.058762 
	C219.078278,171.698044 218.304871,172.060394 215.944809,172.053543 
	C187.463394,171.970856 158.981659,172.000000 130.000000,172.000000 
z"/>
<path fill="#EF7C04" opacity="1.000000" stroke="none" 
	d="
M184.735397,23.307652 
	C195.052414,26.395884 202.325806,32.693268 206.735962,42.267212 
	C210.432571,50.292152 209.615433,57.854683 203.197525,64.289520 
	C184.487518,83.048805 166.020645,102.061546 146.936874,120.433121 
	C134.720795,132.193314 122.672241,144.118637 110.554001,155.975021 
	C108.239952,158.239059 107.136307,158.832504 104.576736,155.561630 
	C100.194389,149.961426 94.659203,145.268280 89.652512,140.150818 
	C76.016739,126.213394 62.168129,112.473869 48.857807,98.231682 
	C38.380070,87.020386 27.540043,76.184166 16.753830,65.285469 
	C14.079559,62.583305 11.618001,59.769032 10.952826,55.458424 
	C10.055843,52.715149 10.664591,50.267628 10.693398,47.426888 
	C11.207457,38.240124 20.024237,27.627045 29.964088,24.051924 
	C31.328728,23.561098 32.782642,23.318483 34.583824,22.912071 
	C36.688602,22.192213 38.468910,22.593174 40.631653,22.717991 
	C48.603210,23.706110 52.583801,29.665546 56.791374,34.705917 
	C60.040203,38.597778 63.670879,42.098862 67.017426,45.864193 
	C77.272263,57.402306 87.913361,68.597961 98.448746,79.885262 
	C100.943077,82.557602 103.706078,84.981468 106.163559,87.685013 
	C107.576790,89.239731 108.239990,88.275429 109.173164,87.301201 
	C118.035484,78.049011 127.320694,69.230133 135.969223,59.739410 
	C146.314270,48.386951 157.551636,37.842995 168.507706,27.055685 
	C170.863754,24.735926 174.428024,24.552639 177.653732,23.104012 
	C180.127441,23.845922 182.278992,23.383646 184.735397,23.307652 
z"/>
<path fill="#F9CEA2" opacity="1.000000" stroke="none" 
	d="
M10.492135,47.198921 
	C10.903131,49.392334 10.964501,51.789825 10.978004,54.635468 
	C8.940229,52.700546 10.430362,49.960613 10.492135,47.198921 
z"/>
<path fill="#F5B16A" opacity="1.000000" stroke="none" 
	d="
M184.628281,23.084076 
	C183.008163,24.678232 180.780930,23.830441 178.313919,23.400398 
	C180.082092,23.111780 182.137421,23.057470 184.628281,23.084076 
z"/>
<path fill="#FCE8D5" opacity="1.000000" stroke="none" 
	d="
M40.875412,22.535763 
	C39.304852,22.918468 37.568989,22.950069 35.402775,22.922432 
	C36.707603,21.137066 38.778839,22.252642 40.875412,22.535763 
z"/>
</svg>