<svg version="1.1" id="Layer_1" xmlns="http://www.w3.org/2000/svg" xmlns:xlink="http://www.w3.org/1999/xlink" x="0px" y="0px"
	 width="100%" viewBox="0 0 211 158" enable-background="new 0 0 211 158" xml:space="preserve">
<path fill="#000000" opacity="1.000000" stroke="none" 
	d="
M151.000000,159.000000 
	C100.700447,159.000000 50.900894,159.000000 1.050672,159.000000 
	C1.050672,106.402855 1.050672,53.805653 1.050672,1.104225 
	C71.216034,1.104225 141.432266,1.104225 211.824249,1.104225 
	C211.824249,53.666180 211.824249,106.333046 211.824249,159.000000 
	C191.805954,159.000000 171.652969,159.000000 151.000000,159.000000 
M20.569769,138.049255 
	C29.325247,144.295792 42.769070,143.830872 50.260979,134.318222 
	C52.206394,131.848053 54.697876,129.808151 56.936947,127.569046 
	C65.524422,118.981430 74.205360,110.484680 82.671570,101.779114 
	C90.940315,93.276596 98.989601,84.560661 106.913193,76.173439 
	C113.479416,83.177551 119.548721,89.701630 125.674004,96.172714 
	C133.349991,104.282051 141.141891,112.282730 148.749939,120.454895 
	C154.020706,126.116493 158.791504,132.267181 164.297028,137.679184 
	C168.765564,142.071808 174.122803,143.651672 180.896530,142.318848 
	C189.254059,140.674347 195.126175,135.782532 199.545593,129.569077 
	C207.022934,119.056351 207.613266,110.025795 197.457809,99.844757 
	C183.104538,85.455330 169.013474,70.804543 154.792953,56.282475 
	C148.237869,49.588398 141.583725,42.990536 135.077866,36.249290 
	C125.691338,26.523163 116.398895,16.706236 106.991615,6.849800 
	C94.761955,18.619097 82.551178,30.108953 70.635048,41.896671 
	C50.849018,61.469475 31.240067,81.221474 11.602381,100.943649 
	C10.238672,102.313225 9.038718,103.945412 8.128708,105.650826 
	C2.724580,115.778412 8.590327,130.713562 20.569769,138.049255 
z"/>
<path fill="#EF7C04" opacity="1.000000" stroke="none" 
	d="
M20.291855,137.800507 
	C8.590327,130.713562 2.724580,115.778412 8.128708,105.650826 
	C9.038718,103.945412 10.238672,102.313225 11.602381,100.943649 
	C31.240067,81.221474 50.849018,61.469475 70.635048,41.896671 
	C82.551178,30.108953 94.761955,18.619097 106.991615,6.849800 
	C116.398895,16.706236 125.691338,26.523163 135.077866,36.249290 
	C141.583725,42.990536 148.237869,49.588398 154.792953,56.282475 
	C169.013474,70.804543 183.104538,85.455330 197.457809,99.844757 
	C207.613266,110.025795 207.022934,119.056351 199.545593,129.569077 
	C195.126175,135.782532 189.254059,140.674347 180.896530,142.318848 
	C174.122803,143.651672 168.765564,142.071808 164.297028,137.679184 
	C158.791504,132.267181 154.020706,126.116493 148.749939,120.454895 
	C141.141891,112.282730 133.349991,104.282051 125.674004,96.172714 
	C119.548721,89.701630 113.479416,83.177551 106.913193,76.173439 
	C98.989601,84.560661 90.940315,93.276596 82.671570,101.779114 
	C74.205360,110.484680 65.524422,118.981430 56.936947,127.569046 
	C54.697876,129.808151 52.206394,131.848053 50.260979,134.318222 
	C42.769070,143.830872 29.325247,144.295792 20.291855,137.800507 
z"/>
</svg>